<svg width="22" height="22" viewBox="0 0 22 22" fill="none" xmlns="http://www.w3.org/2000/svg">
<g id="Truck Icon">
<path id="Vector" d="M9.16659 15.5835H12.8333M12.8333 15.5835V4.5835H1.83325V15.5835H4.58325M12.8333 15.5835H13.7499M18.3333 15.5835H20.1666V12.5218C20.167 12.0402 20.0724 11.5632 19.8884 11.118C19.7044 10.6729 19.4345 10.2684 19.0941 9.92766L17.4166 8.25016H12.8333M9.16659 16.0418C9.16659 17.3075 8.14057 18.3335 6.87492 18.3335C5.60927 18.3335 4.58325 17.3075 4.58325 16.0418C4.58325 14.7762 5.60927 13.7502 6.87492 13.7502C8.14057 13.7502 9.16659 14.7762 9.16659 16.0418ZM18.3333 16.0418C18.3333 17.3075 17.3072 18.3335 16.0416 18.3335C14.7759 18.3335 13.7499 17.3075 13.7499 16.0418C13.7499 14.7762 14.7759 13.7502 16.0416 13.7502C17.3072 13.7502 18.3333 14.7762 18.3333 16.0418Z" stroke="#09090B" stroke-linecap="round" stroke-linejoin="round"/>
</g>
</svg>
